HIERARCHY
ROOT mixamorig:Hips
{
	OFFSET -0.000008 104.274872 1.554316
	CHANNELS 6 Xposition Yposition Zposition Xrotation Yrotation Zrotation
	JOINT mixamorig:Spine
	{
		OFFSET -0.000005 10.181595 0.131519
		CHANNELS 6 Xposition Yposition Zposition Xrotation Yrotation Zrotation
		JOINT mixamorig:Spine1
		{
			OFFSET -0.000000 9.893959 -1.470707
			CHANNELS 6 Xposition Yposition Zposition Xrotation Yrotation Zrotation
			JOINT mixamorig:Spine2
			{
				OFFSET -0.000000 9.220757 -1.370641
				CHANNELS 6 Xposition Yposition Zposition Xrotation Yrotation Zrotation
				JOINT mixamorig:Neck
				{
					OFFSET 0.000001 16.740417 -2.049036
					CHANNELS 6 Xposition Yposition Zposition Xrotation Yrotation Zrotation
					JOINT mixamorig:Head
					{
						OFFSET 0.000000 9.617874 1.685006
						CHANNELS 6 Xposition Yposition Zposition Xrotation Yrotation Zrotation
						JOINT mixamorig:HeadTop_End
						{
							OFFSET 0.000002 22.037354 7.501101
							CHANNELS 6 Xposition Yposition Zposition Xrotation Yrotation Zrotation
							End Site
							{
								OFFSET 0.000168 2310.654297 -282.823242
							}
						}
					}
				}
				JOINT mixamorig:RightShoulder
				{
					OFFSET -4.569970 11.014908 -2.160885
					CHANNELS 6 Xposition Yposition Zposition Xrotation Yrotation Zrotation
					JOINT mixamorig:RightArm
					{
						OFFSET -10.592851 -0.524811 -2.232101
						CHANNELS 6 Xposition Yposition Zposition Xrotation Yrotation Zrotation
						JOINT mixamorig:RightForeArm
						{
							OFFSET -27.841511 0.000031 -0.000004
							CHANNELS 6 Xposition Yposition Zposition Xrotation Yrotation Zrotation
							JOINT mixamorig:RightHand
							{
								OFFSET -28.328831 -0.000015 0.000015
								CHANNELS 6 Xposition Yposition Zposition Xrotation Yrotation Zrotation
								JOINT mixamorig:RightHandThumb1
								{
									OFFSET -2.464806 -1.573990 2.681852
									CHANNELS 6 Xposition Yposition Zposition Xrotation Yrotation Zrotation
									JOINT mixamorig:RightHandThumb2
									{
										OFFSET -3.215179 -1.872803 1.924282
										CHANNELS 6 Xposition Yposition Zposition Xrotation Yrotation Zrotation
										JOINT mixamorig:RightHandThumb3
										{
											OFFSET -2.654831 -1.527969 1.512609
											CHANNELS 6 Xposition Yposition Zposition Xrotation Yrotation Zrotation
											JOINT mixamorig:RightHandThumb4
											{
												OFFSET -2.018814 -1.152008 1.108052
												CHANNELS 6 Xposition Yposition Zposition Xrotation Yrotation Zrotation
												End Site
												{
													OFFSET -188.809540 -114.533607 132.431396
												}
											}
										}
									}
								}
								JOINT mixamorig:RightHandIndex1
								{
									OFFSET -9.108284 -0.517868 2.259835
									CHANNELS 6 Xposition Yposition Zposition Xrotation Yrotation Zrotation
									JOINT mixamorig:RightHandIndex2
									{
										OFFSET -3.699989 0.000000 0.001215
										CHANNELS 6 Xposition Yposition Zposition Xrotation Yrotation Zrotation
										JOINT mixamorig:RightHandIndex3
										{
											OFFSET -2.850006 0.000031 -0.000522
											CHANNELS 6 Xposition Yposition Zposition Xrotation Yrotation Zrotation
											JOINT mixamorig:RightHandIndex4
											{
												OFFSET -2.772186 -0.000015 -0.000020
												CHANNELS 6 Xposition Yposition Zposition Xrotation Yrotation Zrotation
												End Site
												{
													OFFSET -277.218445 0.000000 -0.050231
												}
											}
										}
									}
								}
								JOINT mixamorig:RightHandMiddle1
								{
									OFFSET -9.532516 -0.000031 -0.000023
									CHANNELS 6 Xposition Yposition Zposition Xrotation Yrotation Zrotation
									JOINT mixamorig:RightHandMiddle2
									{
										OFFSET -3.700005 -0.000015 0.003713
										CHANNELS 6 Xposition Yposition Zposition Xrotation Yrotation Zrotation
										JOINT mixamorig:RightHandMiddle3
										{
											OFFSET -2.949974 0.000015 -0.002054
											CHANNELS 6 Xposition Yposition Zposition Xrotation Yrotation Zrotation
											JOINT mixamorig:RightHandMiddle4
											{
												OFFSET -2.946640 0.000000 -0.000156
												CHANNELS 6 Xposition Yposition Zposition Xrotation Yrotation Zrotation
												End Site
												{
													OFFSET -294.664337 0.000000 -0.113670
												}
											}
										}
									}
								}
								JOINT mixamorig:RightHandRing1
								{
									OFFSET -9.103600 -0.043076 -1.865134
									CHANNELS 6 Xposition Yposition Zposition Xrotation Yrotation Zrotation
									JOINT mixamorig:RightHandRing2
									{
										OFFSET -3.379288 0.000000 -0.001055
										CHANNELS 6 Xposition Yposition Zposition Xrotation Yrotation Zrotation
										JOINT mixamorig:RightHandRing3
										{
											OFFSET -2.889687 -0.000015 0.000379
											CHANNELS 6 Xposition Yposition Zposition Xrotation Yrotation Zrotation
											JOINT mixamorig:RightHandRing4
											{
												OFFSET -2.638809 -0.000015 0.000941
												CHANNELS 6 Xposition Yposition Zposition Xrotation Yrotation Zrotation
												End Site
												{
													OFFSET -263.880371 0.000000 0.516020
												}
											}
										}
									}
								}
								JOINT mixamorig:RightHandPinky1
								{
									OFFSET -8.076683 -0.486710 -3.806280
									CHANNELS 6 Xposition Yposition Zposition Xrotation Yrotation Zrotation
									JOINT mixamorig:RightHandPinky2
									{
										OFFSET -3.600014 -0.000015 -0.003747
										CHANNELS 6 Xposition Yposition Zposition Xrotation Yrotation Zrotation
										JOINT mixamorig:RightHandPinky3
										{
											OFFSET -2.099983 0.000000 -0.005739
											CHANNELS 6 Xposition Yposition Zposition Xrotation Yrotation Zrotation
											JOINT mixamorig:RightHandPinky4
											{
												OFFSET -2.115768 -0.000031 -0.003680
												CHANNELS 6 Xposition Yposition Zposition Xrotation Yrotation Zrotation
												End Site
												{
													OFFSET -211.577087 0.000000 -0.350686
												}
											}
										}
									}
								}
							}
						}
					}
				}
				JOINT mixamorig:LeftShoulder
				{
					OFFSET 4.570447 11.014725 -2.160855
					CHANNELS 6 Xposition Yposition Zposition Xrotation Yrotation Zrotation
					JOINT mixamorig:LeftArm
					{
						OFFSET 10.592371 -0.524597 -2.232119
						CHANNELS 6 Xposition Yposition Zposition Xrotation Yrotation Zrotation
						JOINT mixamorig:LeftForeArm
						{
							OFFSET 27.841532 -0.000031 0.000026
							CHANNELS 6 Xposition Yposition Zposition Xrotation Yrotation Zrotation
							JOINT mixamorig:LeftHand
							{
								OFFSET 28.328846 -0.000061 0.000022
								CHANNELS 6 Xposition Yposition Zposition Xrotation Yrotation Zrotation
								JOINT mixamorig:LeftHandThumb1
								{
									OFFSET 2.466141 -1.576172 2.681732
									CHANNELS 6 Xposition Yposition Zposition Xrotation Yrotation Zrotation
									JOINT mixamorig:LeftHandThumb2
									{
										OFFSET 3.217812 -1.872070 1.916482
										CHANNELS 6 Xposition Yposition Zposition Xrotation Yrotation Zrotation
										JOINT mixamorig:LeftHandThumb3
										{
											OFFSET 2.656029 -1.528778 1.514513
											CHANNELS 6 Xposition Yposition Zposition Xrotation Yrotation Zrotation
											JOINT mixamorig:LeftHandThumb4
											{
												OFFSET 2.020889 -1.154053 1.115139
												CHANNELS 6 Xposition Yposition Zposition Xrotation Yrotation Zrotation
												End Site
												{
													OFFSET 190.885437 -115.081749 130.048782
												}
											}
										}
									}
								}
								JOINT mixamorig:LeftHandIndex1
								{
									OFFSET 9.109314 -0.518021 2.259871
									CHANNELS 6 Xposition Yposition Zposition Xrotation Yrotation Zrotation
									JOINT mixamorig:LeftHandIndex2
									{
										OFFSET 3.699989 0.000000 -0.000322
										CHANNELS 6 Xposition Yposition Zposition Xrotation Yrotation Zrotation
										JOINT mixamorig:LeftHandIndex3
										{
											OFFSET 2.850006 0.000000 0.000352
											CHANNELS 6 Xposition Yposition Zposition Xrotation Yrotation Zrotation
											JOINT mixamorig:LeftHandIndex4
											{
												OFFSET 2.774864 -0.000031 -0.000027
												CHANNELS 6 Xposition Yposition Zposition Xrotation Yrotation Zrotation
												End Site
												{
													OFFSET 277.486267 0.000000 -0.009857
												}
											}
										}
									}
								}
								JOINT mixamorig:LeftHandMiddle1
								{
									OFFSET 9.533394 0.000061 0.000044
									CHANNELS 6 Xposition Yposition Zposition Xrotation Yrotation Zrotation
									JOINT mixamorig:LeftHandMiddle2
									{
										OFFSET 3.699989 -0.000015 -0.000231
										CHANNELS 6 Xposition Yposition Zposition Xrotation Yrotation Zrotation
										JOINT mixamorig:LeftHandMiddle3
										{
											OFFSET 2.949997 -0.000015 -0.000059
											CHANNELS 6 Xposition Yposition Zposition Xrotation Yrotation Zrotation
											JOINT mixamorig:LeftHandMiddle4
											{
												OFFSET 2.952896 0.000031 0.000063
												CHANNELS 6 Xposition Yposition Zposition Xrotation Yrotation Zrotation
												End Site
												{
													OFFSET 295.289337 0.000000 0.022810
												}
											}
										}
									}
								}
								JOINT mixamorig:LeftHandRing1
								{
									OFFSET 9.104523 -0.042999 -1.865074
									CHANNELS 6 Xposition Yposition Zposition Xrotation Yrotation Zrotation
									JOINT mixamorig:LeftHandRing2
									{
										OFFSET 3.150009 -0.000031 0.000043
										CHANNELS 6 Xposition Yposition Zposition Xrotation Yrotation Zrotation
										JOINT mixamorig:LeftHandRing3
										{
											OFFSET 2.949982 -0.000015 0.000040
											CHANNELS 6 Xposition Yposition Zposition Xrotation Yrotation Zrotation
											JOINT mixamorig:LeftHandRing4
											{
												OFFSET 2.644348 0.000000 0.000057
												CHANNELS 6 Xposition Yposition Zposition Xrotation Yrotation Zrotation
												End Site
												{
													OFFSET 264.434631 0.000000 0.012105
												}
											}
										}
									}
								}
								JOINT mixamorig:LeftHandPinky1
								{
									OFFSET 8.077789 -0.486847 -3.806259
									CHANNELS 6 Xposition Yposition Zposition Xrotation Yrotation Zrotation
									JOINT mixamorig:LeftHandPinky2
									{
										OFFSET 3.599953 0.000031 0.014727
										CHANNELS 6 Xposition Yposition Zposition Xrotation Yrotation Zrotation
										JOINT mixamorig:LeftHandPinky3
										{
											OFFSET 2.100021 0.000015 0.007705
											CHANNELS 6 Xposition Yposition Zposition Xrotation Yrotation Zrotation
											JOINT mixamorig:LeftHandPinky4
											{
												OFFSET 2.125504 0.000031 0.007517
												CHANNELS 6 Xposition Yposition Zposition Xrotation Yrotation Zrotation
												End Site
												{
													OFFSET 212.550781 0.000000 0.625752
												}
											}
										}
									}
								}
							}
						}
					}
				}
			}
		}
	}
	JOINT mixamorig:RightUpLeg
	{
		OFFSET -8.207787 -6.751648 -1.599560
		CHANNELS 6 Xposition Yposition Zposition Xrotation Yrotation Zrotation
		JOINT mixamorig:RightLeg
		{
			OFFSET -0.000002 -44.370117 0.345942
			CHANNELS 6 Xposition Yposition Zposition Xrotation Yrotation Zrotation
			JOINT mixamorig:RightFoot
			{
				OFFSET 0.000003 -44.423679 -3.043532
				CHANNELS 6 Xposition Yposition Zposition Xrotation Yrotation Zrotation
				JOINT mixamorig:RightToeBase
				{
					OFFSET -0.000002 -8.728671 10.710558
					CHANNELS 6 Xposition Yposition Zposition Xrotation Yrotation Zrotation
					JOINT mixamorig:RightToe_End
					{
						OFFSET -0.000001 -0.000679 9.278119
						CHANNELS 6 Xposition Yposition Zposition Xrotation Yrotation Zrotation
						End Site
						{
							OFFSET 0.000000 -0.067690 927.812134
						}
					}
				}
			}
		}
	}
	JOINT mixamorig:LeftUpLeg
	{
		OFFSET 8.207793 -6.751686 -1.599556
		CHANNELS 6 Xposition Yposition Zposition Xrotation Yrotation Zrotation
		JOINT mixamorig:LeftLeg
		{
			OFFSET -0.000004 -44.370014 0.346954
			CHANNELS 6 Xposition Yposition Zposition Xrotation Yrotation Zrotation
			JOINT mixamorig:LeftFoot
			{
				OFFSET -0.000001 -44.423672 -3.044401
				CHANNELS 6 Xposition Yposition Zposition Xrotation Yrotation Zrotation
				JOINT mixamorig:LeftToeBase
				{
					OFFSET -0.000002 -8.728669 10.710558
					CHANNELS 6 Xposition Yposition Zposition Xrotation Yrotation Zrotation
					JOINT mixamorig:LeftToe_End
					{
						OFFSET -0.000003 -0.000679 9.278133
						CHANNELS 6 Xposition Yposition Zposition Xrotation Yrotation Zrotation
						End Site
						{
							OFFSET 0.000000 -0.068021 927.813477
						}
					}
				}
			}
		}
	}
}
MOTION
Frames: 3
Frame Time: 0.033333
0.000006 104.270477 1.554256 0.000010 0.000003 -0.000113 -0.000005 10.181587 0.131522 0.000001 -0.000003 0.000084 -0.000000 9.893967 -1.470711 0.000001 0.000000 -0.000000 -0.000000 9.220802 -1.370642 0.000000 -0.000000 -0.000000 0.000001 16.740433 -2.049030 0.000000 -0.000000 -0.000000 0.000000 9.617859 1.685014 0.000000 0.000000 0.000000 0.000002 22.037384 7.501101 0.000000 -0.000000 0.000000 -4.569968 11.014880 -2.160881 0.000008 0.000001 -0.000038 -10.592881 -0.524745 -2.231948 72.832575 23.533405 -17.472245 -27.841524 -0.000005 0.000552 -52.335102 107.408980 67.565952 -28.328838 0.000007 0.000026 -0.000320 -0.000044 0.000007 -2.464420 -1.573829 2.682342 -42.326378 -157.865397 2.592699 -3.215264 -1.872532 1.924633 150.671637 33.194822 19.312128 -2.654958 -1.527869 1.513079 148.266140 27.358488 -30.564171 -2.018834 -1.152011 1.108065 -0.000005 -0.000003 0.000002 -9.108393 -0.517568 2.260146 99.209065 18.065888 -21.219842 -3.700086 0.000308 0.001504 95.782652 14.829483 -16.360282 -2.850101 0.000364 -0.000268 94.990214 12.441357 -13.563876 -2.772179 -0.000017 -0.000020 0.000000 -0.000000 0.000000 -9.532585 0.000267 0.000225 87.512092 16.473257 -15.919199 -3.700075 0.000346 0.003945 88.157457 11.082739 -10.643360 -2.950059 0.000332 -0.001817 91.830452 11.313500 -11.671030 -2.946637 -0.000013 -0.000157 -0.000001 -0.000001 -0.000001 -9.103699 -0.042780 -1.864897 87.187419 18.028110 -17.134390 -3.379315 0.000326 -0.000839 88.597601 7.238038 -7.079870 -2.889747 0.000381 0.000628 96.266667 5.319551 -5.984295 -2.638811 0.000001 0.000942 -0.000001 -0.000000 -0.000002 -8.076756 -0.486400 -3.806024 85.244661 17.876511 -16.331365 -3.600028 0.000278 -0.003529 88.664236 7.082920 -6.579438 -2.100042 0.000330 -0.005480 91.695105 3.989715 -3.888906 -2.115788 -0.000054 -0.003676 -0.000003 0.000002 -0.000005 4.570446 11.014691 -2.160851 -0.000018 0.000010 -0.000021 10.592533 -0.524527 -2.232404 72.592985 -62.420819 47.978117 27.841734 -0.000081 -0.000096 241.939398 -74.219103 256.846778 28.328836 -0.000029 0.000036 0.000023 -0.000088 0.000001 2.466146 -1.576159 2.681843 143.057151 174.048110 -170.404942 3.217829 -1.871994 1.916545 291.133753 31.918051 24.043395 2.656025 -1.528819 1.514587 78.891840 128.060159 -128.769106 2.020891 -1.154078 1.115154 -0.000000 0.000007 0.000002 9.109307 -0.517807 2.260098 -104.789971 -2.923119 -3.782222 3.700027 0.000165 -0.000085 -109.191270 6.885010 9.653085 2.850102 0.000158 0.000517 -126.837747 23.880807 45.824764 2.774875 -0.000008 -0.000025 -0.000001 0.000000 0.000005 9.533403 0.000231 0.000284 -100.751540 0.050048 0.069100 3.700037 0.000128 -0.000036 -87.716602 12.428960 11.949412 2.950052 0.000071 0.000126 -85.884267 24.976108 23.289432 2.952867 -0.000013 0.000064 0.000005 -0.000000 0.000003 9.104548 -0.042858 -1.864835 -94.936720 3.954412 4.308537 3.150017 0.000104 0.000221 -71.052354 14.302958 10.236740 2.949996 0.000019 0.000199 -64.977290 13.508267 8.624517 2.644318 0.000045 0.000063 -0.000000 -0.000000 -0.000000 8.077795 -0.486746 -3.806020 97.501852 -186.343612 185.109601 3.599972 0.000055 0.014871 -56.302274 18.512823 9.662677 2.100019 0.000021 0.007790 -51.302862 25.626305 12.172153 2.125490 -0.000017 0.007530 0.000002 0.000000 0.000002 -8.207786 -6.751667 -1.599560 -0.077001 -0.000003 0.000080 -0.000002 -44.370110 0.345938 0.153719 -0.000000 -0.000000 0.000000 -44.423679 -3.043532 -0.076700 0.000000 -0.000002 -0.000006 -8.728667 10.710559 -0.000009 -0.000000 -0.000000 -0.000001 -0.000679 9.278123 0.000000 -0.000000 -0.000000 8.207792 -6.751710 -1.599556 -0.074518 -0.000003 0.000081 -0.000002 -44.370014 0.346960 0.148822 0.000002 0.000000 -0.000001 -44.423664 -3.044403 -0.074314 0.000000 -0.000002 -0.000004 -8.728671 10.710558 0.000007 -0.000000 -0.000000 0.000000 -0.000680 9.278137 -0.000000 0.000000 -0.000001 
0.000006 104.270477 1.554256 0.000010 0.000003 -0.000113 -0.000005 10.181587 0.131522 0.000001 -0.000003 0.000084 -0.000000 9.893967 -1.470711 0.000001 0.000000 -0.000000 -0.000000 9.220802 -1.370642 0.000000 -0.000000 -0.000000 0.000001 16.740433 -2.049030 0.000000 -0.000000 -0.000000 0.000000 9.617859 1.685014 0.000000 0.000000 0.000000 0.000002 22.037384 7.501101 0.000000 -0.000000 0.000000 -4.569968 11.014880 -2.160881 0.000008 0.000001 -0.000038 -10.592878 -0.524745 -2.231931 72.920862 24.830051 -18.477566 -27.841518 0.000014 0.000549 -52.533270 106.995337 67.396912 -28.328836 0.000005 0.000024 -0.000316 -0.000047 0.000010 -2.464415 -1.573844 2.682348 -39.127295 -154.693963 8.659149 -3.215225 -1.872505 1.924625 148.191158 33.789926 29.265018 -2.654950 -1.527885 1.513065 148.623769 27.316338 -30.471424 -2.018815 -1.152000 1.108052 -0.000001 -0.000005 0.000000 -9.108403 -0.517558 2.260134 99.144116 17.800357 -20.887074 -3.700087 0.000308 0.001520 95.309969 14.485341 -15.850777 -2.850090 0.000363 -0.000271 93.953323 12.304925 -13.176152 -2.772171 -0.000015 -0.000020 -0.000002 0.000000 0.000000 -9.532595 0.000269 0.000212 87.991428 16.698190 -16.269085 -3.700052 0.000327 0.003934 87.757590 10.842240 -10.338541 -2.950057 0.000330 -0.001830 90.900146 11.340540 -11.511728 -2.946638 0.000001 -0.000153 -0.000001 0.000002 -0.000001 -9.103730 -0.042759 -1.864887 87.656408 18.728357 -17.946503 -3.379301 0.000332 -0.000849 86.734639 6.727633 -6.371302 -2.889746 0.000350 0.000615 94.592430 4.916681 -5.374815 -2.638800 0.000015 0.000941 0.000006 -0.000003 0.000003 -8.076769 -0.486385 -3.806034 85.330475 18.710765 -17.126360 -3.600046 0.000275 -0.003527 87.960713 6.955894 -6.377227 -2.100030 0.000332 -0.005495 90.828559 3.722021 -3.559863 -2.115786 -0.000043 -0.003679 0.000002 -0.000003 -0.000002 4.570446 11.014691 -2.160851 -0.000018 0.000010 -0.000021 10.592530 -0.524523 -2.232407 72.906484 -62.616442 48.387092 27.841728 -0.000061 -0.000098 242.353854 -74.213612 257.309236 28.328840 -0.000012 0.000030 0.000024 -0.000090 -0.000000 2.466164 -1.576178 2.681855 140.451366 175.114043 -169.529106 3.217834 -1.871984 1.916556 289.518277 28.554205 24.271456 2.656006 -1.528789 1.514602 75.568694 130.935437 -127.538620 2.020895 -1.154065 1.115137 0.000005 0.000003 0.000004 9.109305 -0.517806 2.260124 -106.579180 -4.332435 -5.795687 3.700020 0.000212 -0.000107 -111.987290 2.907734 4.286767 2.850045 0.000244 0.000569 -119.488873 8.229043 14.062857 2.774879 0.000002 -0.000023 -0.000000 0.000002 -0.000000 9.533396 0.000237 0.000297 -100.968173 -2.169734 -2.622129 3.700045 0.000159 0.000004 -95.352357 8.257274 9.066622 2.950050 0.000130 0.000169 -94.390858 13.387373 14.440680 2.952865 -0.000014 0.000066 0.000003 0.000000 0.000000 9.104540 -0.042853 -1.864816 -94.751833 1.596364 1.732780 3.150033 0.000113 0.000232 -80.792395 11.615332 9.891892 2.950007 0.000097 0.000237 -75.959934 9.714430 7.590028 2.644319 0.000016 0.000052 -0.000003 0.000001 -0.000001 8.077802 -0.486739 -3.806036 96.039782 -183.937773 183.093370 3.599979 0.000066 0.014915 -66.355978 14.875643 9.410980 2.100031 0.000065 0.007876 -66.743447 17.724117 11.380518 2.125502 -0.000011 0.007525 0.000001 -0.000000 0.000001 -8.207786 -6.751667 -1.599560 -0.077001 -0.000003 0.000080 -0.000002 -44.370110 0.345938 0.153719 -0.000000 -0.000000 0.000000 -44.423679 -3.043532 -0.076700 0.000000 -0.000002 -0.000006 -8.728667 10.710559 -0.000009 -0.000000 -0.000000 -0.000001 -0.000679 9.278123 0.000000 -0.000000 -0.000000 8.207792 -6.751710 -1.599556 -0.074518 -0.000003 0.000081 -0.000002 -44.370014 0.346960 0.148822 0.000002 0.000000 -0.000001 -44.423664 -3.044403 -0.074314 0.000000 -0.000002 -0.000004 -8.728671 10.710558 0.000007 -0.000000 -0.000000 0.000000 -0.000680 9.278137 -0.000000 0.000000 -0.000001 
0.000006 104.270477 1.554256 0.000010 0.000003 -0.000113 -0.000005 10.181587 0.131522 0.000001 -0.000003 0.000084 -0.000000 9.893967 -1.470711 0.000001 0.000000 -0.000000 -0.000000 9.220802 -1.370642 0.000000 -0.000000 -0.000000 0.000001 16.740433 -2.049030 0.000000 -0.000000 -0.000000 0.000000 9.617859 1.685014 0.000000 0.000000 0.000000 0.000002 22.037384 7.501101 0.000000 -0.000000 0.000000 -4.569968 11.014880 -2.160881 0.000008 0.000001 -0.000038 -10.592878 -0.524756 -2.231910 72.937814 26.701306 -19.898206 -27.841515 0.000014 0.000532 -52.794432 106.410700 67.136866 -28.328836 0.000023 0.000027 -0.000319 -0.000046 0.000007 -2.464404 -1.573879 2.682354 -38.483389 -154.243730 9.864414 -3.215243 -1.872503 1.924607 148.116504 33.784800 29.419698 -2.654963 -1.527876 1.513065 148.861815 27.335086 -29.979015 -2.018830 -1.152013 1.108057 -0.000003 -0.000002 0.000000 -9.108386 -0.517559 2.260127 98.379012 17.362988 -20.110082 -3.700073 0.000317 0.001502 95.442386 14.058735 -15.419598 -2.850087 0.000364 -0.000265 94.305091 11.965291 -12.891296 -2.772170 -0.000017 -0.000017 -0.000000 -0.000001 -0.000001 -9.532588 0.000265 0.000215 87.861935 16.204253 -15.755612 -3.700062 0.000336 0.003941 87.671933 10.792302 -10.275243 -2.950044 0.000343 -0.001814 91.109328 11.313139 -11.525637 -2.946627 0.000002 -0.000155 0.000002 -0.000000 0.000001 -9.103705 -0.042758 -1.864888 87.773928 18.353705 -17.621857 -3.379307 0.000335 -0.000853 86.897280 6.731369 -6.392946 -2.889731 0.000353 0.000625 95.238327 4.896663 -5.413948 -2.638812 -0.000016 0.000938 0.000001 0.000000 0.000001 -8.076752 -0.486379 -3.806025 85.513183 18.250231 -16.753602 -3.600050 0.000276 -0.003536 88.017765 6.605056 -6.046221 -2.100001 0.000331 -0.005494 91.733750 3.498686 -3.387096 -2.115783 -0.000053 -0.003673 0.000001 -0.000001 -0.000000 4.570446 11.014691 -2.160851 -0.000018 0.000010 -0.000021 10.592525 -0.524515 -2.232395 72.350589 -61.972533 47.415300 27.841732 -0.000066 -0.000094 240.357471 -75.591049 253.725818 28.328840 -0.000013 0.000024 0.000023 -0.000090 -0.000001 2.466166 -1.576146 2.681864 139.487640 181.779269 -168.788646 3.217845 -1.871967 1.916555 288.905418 24.660106 23.844761 2.656013 -1.528777 1.514619 77.134084 133.592763 -129.882358 2.020888 -1.154071 1.115141 -0.000001 0.000009 0.000001 9.109294 -0.517799 2.260104 -106.548397 -6.680454 -8.934383 3.700012 0.000201 -0.000085 -108.747806 2.102959 2.913831 2.850037 0.000241 0.000574 -112.353320 6.959413 10.372890 2.774890 -0.000045 -0.000029 -0.000000 0.000001 -0.000001 9.533383 0.000243 0.000279 -100.474787 -4.966252 -5.959134 3.700025 0.000165 0.000012 -97.312021 4.977238 5.658431 2.950039 0.000142 0.000186 -96.548440 7.657395 8.580303 2.952865 -0.000015 0.000059 -0.000002 0.000000 0.000000 9.104542 -0.042845 -1.864858 -94.883943 -1.385030 -1.510099 3.150021 0.000161 0.000261 -85.263137 4.401082 4.050268 2.950000 0.000154 0.000257 -83.695130 2.751617 2.463051 2.644317 0.000046 0.000060 0.000001 -0.000000 0.000000 8.077777 -0.486724 -3.806025 95.774121 -180.509223 180.032831 3.599962 0.000110 0.014902 -68.924122 6.851918 4.381019 2.100011 0.000099 0.007914 -69.674596 7.752663 5.079961 2.125502 -0.000015 0.007512 -0.000000 -0.000000 0.000001 -8.207786 -6.751667 -1.599560 -0.077001 -0.000003 0.000080 -0.000002 -44.370110 0.345938 0.153719 -0.000000 -0.000000 0.000000 -44.423679 -3.043532 -0.076700 0.000000 -0.000002 -0.000006 -8.728667 10.710559 -0.000009 -0.000000 -0.000000 -0.000001 -0.000679 9.278123 0.000000 -0.000000 -0.000000 8.207792 -6.751710 -1.599556 -0.074518 -0.000003 0.000081 -0.000002 -44.370014 0.346960 0.148822 0.000002 0.000000 -0.000001 -44.423664 -3.044403 -0.074314 0.000000 -0.000002 -0.000004 -8.728671 10.710558 0.000007 -0.000000 -0.000000 0.000000 -0.000680 9.278137 -0.000000 0.000000 -0.000001 
